<svg width="18" height="18" viewBox="0 0 18 18" fill="none" xmlns="http://www.w3.org/2000/svg">
<g clip-path="url(#clip0_48_637)">
<path d="M3 4.5H1.5V15C1.5 15.825 2.175 16.5 3 16.5H13.5V15H3V4.5ZM15 1.5H6C5.175 1.5 4.5 2.175 4.5 3V12C4.5 12.825 5.175 13.5 6 13.5H15C15.825 13.5 16.5 12.825 16.5 12V3C16.5 2.175 15.825 1.5 15 1.5ZM14.25 8.25H6.75V6.75H14.25V8.25ZM11.25 11.25H6.75V9.75H11.25V11.25ZM14.25 5.25H6.75V3.75H14.25V5.25Z" fill="white"/>
</g>
<defs>
<clipPath id="clip0_48_637">
<rect width="18" height="18" fill="white"/>
</clipPath>
</defs>
</svg>
