<svg width="35" height="35" viewBox="0 0 35 35" fill="none" xmlns="http://www.w3.org/2000/svg">
<path d="M31.5 0H10.5C8.575 0 7 1.575 7 3.5V24.5C7 26.425 8.575 28 10.5 28H31.5C33.425 28 35 26.425 35 24.5V3.5C35 1.575 33.425 0 31.5 0ZM16.625 13.125C16.625 14.5775 15.4525 15.75 14 15.75H12.25V19.25H9.625V8.75H14C15.4525 8.75 16.625 9.9225 16.625 11.375V13.125ZM25.375 16.625C25.375 18.0775 24.2025 19.25 22.75 19.25H18.375V8.75H22.75C24.2025 8.75 25.375 9.9225 25.375 11.375V16.625ZM32.375 11.375H29.75V13.125H32.375V15.75H29.75V19.25H27.125V8.75H32.375V11.375ZM12.25 13.125H14V11.375H12.25V13.125ZM3.5 7H0V31.5C0 33.425 1.575 35 3.5 35H28V31.5H3.5V7ZM21 16.625H22.75V11.375H21V16.625Z" fill="white"/>
</svg>
