<svg width="20" height="20" viewBox="0 0 20 20" fill="none" xmlns="http://www.w3.org/2000/svg">
<path d="M18 0H2C0.89 0 0.00999999 1.1125 0.00999999 2.5L0 17.5C0 18.8875 0.89 20 2 20H18C19.11 20 20 18.8875 20 17.5V2.5C20 1.1125 19.11 0 18 0ZM6.5 13.75H5.3L2.75 9.375V13.75H1.5V6.25H2.75L5.25 10.625V6.25H6.5V13.75ZM11.5 7.825H9V9.225H11.5V10.8H9V12.1875H11.5V13.75H7.5V6.25H11.5V7.825ZM18.5 12.5C18.5 13.1875 18.05 13.75 17.5 13.75H13.5C12.95 13.75 12.5 13.1875 12.5 12.5V6.25H13.75V11.8875H14.88V7.4875H16.13V11.875H17.25V6.25H18.5V12.5Z" fill="#EB3223"/>
</svg>
