<svg width="40" height="40" viewBox="0 0 40 40" fill="none" xmlns="http://www.w3.org/2000/svg">
<g clip-path="url(#clip0_48_446)">
<path d="M15 18.3334H11.6667V21.6667H15V18.3334ZM21.6667 18.3334H18.3333V21.6667H21.6667V18.3334ZM28.3333 18.3334H25V21.6667H28.3333V18.3334ZM31.6667 6.66671H30V3.33337H26.6667V6.66671H13.3333V3.33337H10V6.66671H8.33333C6.48333 6.66671 5.01667 8.16671 5.01667 10L5 33.3334C5 35.1667 6.48333 36.6667 8.33333 36.6667H31.6667C33.5 36.6667 35 35.1667 35 33.3334V10C35 8.16671 33.5 6.66671 31.6667 6.66671ZM31.6667 33.3334H8.33333V15H31.6667V33.3334Z" fill="white"/>
</g>
<defs>
<clipPath id="clip0_48_446">
<rect width="40" height="40" fill="white"/>
</clipPath>
</defs>
</svg>
