<svg width="18" height="18" viewBox="0 0 18 18" fill="none" xmlns="http://www.w3.org/2000/svg">
<path d="M2.7 0C1.21289 0 0 1.21289 0 2.7V15.3C0 16.7871 1.21289 18 2.7 18H15.3C16.7871 18 18 16.7871 18 15.3V2.7C18 1.21289 16.7871 0 15.3 0H2.7ZM2.7 1.8H15.3C15.7957 1.8 16.2 2.2043 16.2 2.7V15.3C16.2 15.7957 15.7957 16.2 15.3 16.2H14.4V14.4H9.9V16.2H2.7C2.2043 16.2 1.8 15.7957 1.8 15.3V2.7C1.8 2.2043 2.2043 1.8 2.7 1.8ZM9 3.6C8.00508 3.6 7.2 4.40508 7.2 5.4C7.2 6.39492 8.00508 7.2 9 7.2C9.99492 7.2 10.8 6.39492 10.8 5.4C10.8 4.40508 9.99492 3.6 9 3.6ZM4.95 5.4C4.20469 5.4 3.6 6.00469 3.6 6.75C3.6 7.49531 4.20469 8.1 4.95 8.1C5.69531 8.1 6.3 7.49531 6.3 6.75C6.3 6.00469 5.69531 5.4 4.95 5.4ZM13.05 5.4C12.3047 5.4 11.7 6.00469 11.7 6.75C11.7 7.49531 12.3047 8.1 13.05 8.1C13.7953 8.1 14.4 7.49531 14.4 6.75C14.4 6.00469 13.7953 5.4 13.05 5.4ZM9 8.1C6.60586 8.1 5.85 10.35 5.85 10.35C5.85 9.58711 6.3 9 6.3 9C6.0293 8.83125 5.33672 8.71875 5.00625 8.71875C3.91289 8.71875 2.7 9.79102 2.7 10.5188V12.6H15.3V10.5188C15.3 9.79102 13.9395 8.71875 12.9937 8.71875C12.6633 8.71875 11.9707 8.83125 11.7 9C11.7 9 12.15 9.58711 12.15 10.35C12.15 10.35 11.3941 8.1 9 8.1Z" fill="white"/>
</svg>
