<svg width="40" height="40" viewBox="0 0 40 40" fill="none" xmlns="http://www.w3.org/2000/svg">
<path d="M33.3333 28.2731C31.6444 28.2731 30.1333 28.8755 28.9778 29.8193L13.1333 21.4859C13.2444 21.0241 13.3333 20.5622 13.3333 20.0803C13.3333 19.5984 13.2444 19.1365 13.1333 18.6747L28.8 10.4217C30 11.4257 31.5778 12.0482 33.3333 12.0482C37.0222 12.0482 40 9.35743 40 6.0241C40 2.69076 37.0222 0 33.3333 0C29.6444 0 26.6667 2.69076 26.6667 6.0241C26.6667 6.50602 26.7556 6.96787 26.8667 7.42972L11.2 15.6827C10 14.6787 8.42222 14.0562 6.66667 14.0562C2.97778 14.0562 0 16.747 0 20.0803C0 23.4137 2.97778 26.1044 6.66667 26.1044C8.42222 26.1044 10 25.4819 11.2 24.4779L27.0222 32.8313C26.9111 33.253 26.8444 33.6948 26.8444 34.1365C26.8444 37.3695 29.7556 40 33.3333 40C36.9111 40 39.8222 37.3695 39.8222 34.1365C39.8222 30.9036 36.9111 28.2731 33.3333 28.2731Z" fill="white"/>
</svg>
