<svg width="15" height="15" viewBox="0 0 15 15" fill="none" xmlns="http://www.w3.org/2000/svg">
<path d="M9.375 9.15L11.55 10.425L10.95 11.4L8.25 9.75V6H9.375V9.15ZM15 9C15 12.3075 12.3075 15 9 15C7.485 15 6.105 14.43 5.0475 13.5H1.5C0.6375 13.5 0 12.8625 0 12V5.25C0 4.41 0.6675 3.78 1.5 3.75V3.375C1.5 1.5075 3.0075 0 4.875 0C6.63 0 8.055 1.3425 8.22 3.06C8.475 3.0225 8.7375 3 9 3C12.3075 3 15 5.6925 15 9ZM3 3.75H6.75V3.195C6.66 2.2425 5.85 1.5 4.875 1.5C3.84 1.5 3 2.34 3 3.375V3.75ZM13.5 9C13.5 6.5175 11.4825 4.5 9 4.5C6.5175 4.5 4.5 6.5175 4.5 9C4.5 11.4825 6.5175 13.5 9 13.5C11.4825 13.5 13.5 11.4825 13.5 9Z" fill="white"/>
</svg>
