<svg width="40" height="40" viewBox="0 0 40 40" fill="none" xmlns="http://www.w3.org/2000/svg">
<path d="M32.7273 10L25.4545 20H30.9091C30.9091 28.275 26.0182 35 20 35C18.1636 35 16.4182 34.375 14.9091 33.25L12.2545 36.9C14.4909 38.85 17.1455 40 20 40C28.0364 40 34.5455 31.05 34.5455 20H40L32.7273 10ZM9.09091 20C9.09091 11.725 13.9818 5 20 5C21.8364 5 23.5818 5.625 25.0909 6.75L27.7455 3.1C25.5091 1.15 22.8545 0 20 0C11.9636 0 5.45455 8.95 5.45455 20H0L7.27273 30L14.5455 20H9.09091Z" fill="white"/>
</svg>
